# xmcd CD database file
#
# Track frame offsets:
#	150
#	21190
#	42230
#
# Disc length: 841 seconds
#
# Revision: 0
# Processed by: cddbd v1.5.1PL2 Copyright (c) Steve Scherf et al.
# Submitted via: CDex 1.51
#
DISCID=1c034703
DTITLE=eco - 走れ☆ホーリーホック! 水戸ホーリーホック応援ソング
DYEAR=2005
DGENRE=JPop
TTITLE0=走れ☆ホーリーホック!
TTITLE1=走れ☆ホーリーホック![スタジアムバージョン]
TTITLE2=走れ☆ホーリーホック![カラオケ]
EXTD=YEAR: 2005
EXTT0=
EXTT1=
EXTT2=
PLAYORDER=
